<svg width="16" height="14" viewBox="0 0 16 14" fill="none" xmlns="http://www.w3.org/2000/svg">
<path d="M14.7098 4.24742C14.6169 4.16902 14.5063 4.10679 14.3844 4.06433C14.2625 4.02186 14.1318 4 13.9998 4C13.8678 4 13.7371 4.02186 13.6152 4.06433C13.4934 4.10679 13.3828 4.16902 13.2898 4.24742L8.70982 8.07837C8.61685 8.15677 8.50625 8.219 8.38439 8.26146C8.26253 8.30393 8.13183 8.32579 7.99982 8.32579C7.86781 8.32579 7.7371 8.30393 7.61524 8.26146C7.49338 8.219 7.38278 8.15677 7.28982 8.07837L2.70982 4.24742C2.61685 4.16902 2.50625 4.10679 2.38439 4.06433C2.26253 4.02186 2.13183 4 1.99982 4C1.8678 4 1.7371 4.02186 1.61524 4.06433C1.49338 4.10679 1.38278 4.16902 1.28982 4.24742C1.10356 4.40414 0.999023 4.61614 0.999023 4.83712C0.999023 5.0581 1.10356 5.2701 1.28982 5.42682L5.87982 9.26613C6.44232 9.73605 7.20481 10 7.99982 10C8.79482 10 9.55732 9.73605 10.1198 9.26613L14.7098 5.42682C14.8961 5.2701 15.0006 5.0581 15.0006 4.83712C15.0006 4.61614 14.8961 4.40414 14.7098 4.24742Z" fill="#6A718A"/>
</svg>
