<svg width="52" height="44" viewBox="0 0 52 44" fill="none" xmlns="http://www.w3.org/2000/svg">
<rect x="0.25" y="0.250488" width="51.5" height="43.5" rx="5.75" stroke="#40476C" stroke-width="0.5"/>
<path d="M29.4013 19.8813L24.8113 15.2913C24.6239 15.105 24.3705 15.0005 24.1063 15.0005C23.8421 15.0005 23.5886 15.105 23.4013 15.2913C23.3075 15.3842 23.2331 15.4948 23.1824 15.6167C23.1316 15.7386 23.1055 15.8693 23.1055 16.0013C23.1055 16.1333 23.1316 16.264 23.1824 16.3859C23.2331 16.5077 23.3075 16.6183 23.4013 16.7113L28.0013 21.2913C28.095 21.3842 28.1694 21.4948 28.2202 21.6167C28.2709 21.7386 28.2971 21.8693 28.2971 22.0013C28.2971 22.1333 28.2709 22.264 28.2202 22.3859C28.1694 22.5077 28.095 22.6183 28.0013 22.7113L23.4013 27.2913C23.213 27.4783 23.1066 27.7324 23.1057 27.9977C23.1048 28.2631 23.2093 28.518 23.3963 28.7063C23.5832 28.8946 23.8374 29.0009 24.1027 29.0018C24.3681 29.0028 24.623 28.8983 24.8113 28.7113L29.4013 24.1213C29.9631 23.5588 30.2786 22.7963 30.2786 22.0013C30.2786 21.2063 29.9631 20.4438 29.4013 19.8813Z" fill="#6A718A"/>
</svg>
