<svg width="52" height="44" viewBox="0 0 52 44" fill="none" xmlns="http://www.w3.org/2000/svg">
<rect x="0.25" y="0.250488" width="51.5" height="43.5" rx="5.75" stroke="#40476C" stroke-width="0.5"/>
<path d="M22.5987 19.8813L27.1887 15.2913C27.3761 15.105 27.6295 15.0005 27.8937 15.0005C28.1579 15.0005 28.4114 15.105 28.5987 15.2913C28.6925 15.3842 28.7669 15.4948 28.8176 15.6167C28.8684 15.7386 28.8945 15.8693 28.8945 16.0013C28.8945 16.1333 28.8684 16.264 28.8176 16.3859C28.7669 16.5077 28.6925 16.6183 28.5987 16.7113L23.9987 21.2913C23.905 21.3842 23.8306 21.4948 23.7798 21.6167C23.7291 21.7386 23.7029 21.8693 23.7029 22.0013C23.7029 22.1333 23.7291 22.264 23.7798 22.3859C23.8306 22.5077 23.905 22.6183 23.9987 22.7113L28.5987 27.2913C28.787 27.4783 28.8934 27.7324 28.8943 27.9977C28.8952 28.2631 28.7907 28.518 28.6037 28.7063C28.4168 28.8946 28.1626 29.0009 27.8973 29.0018C27.6319 29.0028 27.377 28.8983 27.1887 28.7113L22.5987 24.1213C22.0369 23.5588 21.7214 22.7963 21.7214 22.0013C21.7214 21.2063 22.0369 20.4438 22.5987 19.8813Z" fill="#6A718A"/>
</svg>
