<svg width="38" height="38" viewBox="0 0 38 38" fill="none" xmlns="http://www.w3.org/2000/svg">
<g clip-path="url(#clip0_3176_2552)">
<g clip-path="url(#clip1_3176_2552)">
<path d="M36.2569 34.5371H1.72694C0.77292 34.5371 0 35.31 0 36.2649C0 37.2181 0.77292 37.991 1.72694 37.991H36.2561C37.2101 37.991 37.983 37.2181 37.983 36.2649C37.9822 35.31 37.2093 34.5371 36.2569 34.5371Z" fill="#B391FF"/>
<path d="M3.88319 30.0478C2.92917 30.0478 2.15625 30.8207 2.15625 31.7747C2.15625 32.7287 2.92917 33.5025 3.88319 33.5025H34.0966C35.0506 33.5025 35.8235 32.7287 35.8235 31.7747C35.8235 30.8207 35.0506 30.0478 34.0966 30.0478H33.6657V14.5085H34.0966C34.5744 14.5085 34.9593 14.1221 34.9593 13.6459C34.9593 13.1697 34.5728 12.7832 34.0966 12.7832H3.88319C3.40618 12.7832 3.02053 13.1697 3.02053 13.6459C3.02053 14.1221 3.40699 14.5085 3.88319 14.5085H4.31493V30.047H3.88319V30.0478ZM30.2118 14.5085V30.047H25.0326V14.5085H30.2118ZM21.5787 14.5085V30.047H16.3995V14.5085H21.5787ZM7.7672 14.5085H12.9464V30.047H7.7672V14.5085Z" fill="#B391FF"/>
<path d="M1.72697 11.2312H36.2561C36.2618 11.2312 36.2682 11.2312 36.2731 11.2312C37.2279 11.2312 38 10.4583 38 9.50431C38 8.74594 37.5117 8.10319 36.8334 7.87034L19.7014 0.161358C19.2511 -0.0407652 18.7361 -0.0407652 18.2849 0.161358L1.01873 7.93017C0.275729 8.26489 -0.13256 9.07176 0.0388405 9.86732C0.209433 10.6629 0.912822 11.2312 1.72697 11.2312Z" fill="#B391FF"/>
</g>
</g>
<defs>
<clipPath id="clip0_3176_2552">
<rect width="38" height="38" fill="white"/>
</clipPath>
<clipPath id="clip1_3176_2552">
<rect width="38" height="38" fill="white"/>
</clipPath>
</defs>
</svg>
