<svg width="24" height="24" viewBox="0 0 24 24" fill="none" xmlns="http://www.w3.org/2000/svg">
<path d="M11.9998 0.809814C5.81432 0.809814 0.799805 5.45782 0.799805 11.1914C0.799805 14.4576 2.42716 17.3707 4.97096 19.2736L5.01632 22.934C5.01856 23.1317 5.23248 23.2546 5.40468 23.1566L8.90244 21.1703C9.88608 21.4321 10.9254 21.5727 12.0001 21.5727C18.1856 21.5727 23.2001 16.9247 23.2001 11.1911C23.2001 5.45754 18.1853 0.809814 11.9998 0.809814ZM12.8502 14.5377L10.4562 12.0459C10.3159 11.8998 10.0955 11.8651 9.91716 11.9611L5.71632 14.2232C5.55644 14.3092 5.39936 14.1045 5.52396 13.9723L10.4878 8.7103C10.6303 8.55938 10.8703 8.55938 11.0125 8.71058L13.4057 11.2502C13.5462 11.3997 13.7694 11.4353 13.9497 11.337L18.0778 9.08942C18.2376 9.00262 18.3956 9.20758 18.2707 9.34002L13.3726 14.5351C13.2312 14.6849 12.9932 14.6861 12.8502 14.5377Z" fill="#AEB1BF"/>
</svg>
