<svg width="28" height="28" viewBox="0 0 28 28" fill="none" xmlns="http://www.w3.org/2000/svg">
<path d="M11.3224 15.4469C11.2345 15.4469 9.39015 15.4475 8.53951 15.4467C8.10159 15.4464 7.94535 15.289 7.94535 14.8483C7.94479 13.7163 7.94451 12.5842 7.94535 11.4522C7.94563 11.0171 8.11083 10.851 8.54315 10.8507C9.39379 10.8502 11.2281 10.8505 11.3224 10.8505C11.3224 10.7729 11.3222 9.13855 11.3224 8.38591C11.323 7.27319 11.5215 6.20807 12.0868 5.23283C12.6656 4.23463 13.5078 3.55087 14.5872 3.15551C15.2786 2.90211 15.9962 2.80103 16.7298 2.80047C17.6476 2.79991 18.5655 2.80075 19.4836 2.80243C19.8781 2.80299 20.0531 2.97743 20.054 3.37475C20.0556 4.43959 20.0556 5.50443 20.054 6.56899C20.0534 6.97051 19.8857 7.13179 19.4822 7.13627C18.7298 7.14439 17.9769 7.13935 17.2254 7.16959C16.4663 7.16959 16.067 7.54031 16.067 8.32599C16.0488 9.15703 16.0595 9.98891 16.0595 10.8502C16.1306 10.8502 18.2908 10.8499 19.3005 10.8502C19.7591 10.8502 19.9159 11.0078 19.9159 11.469C19.9159 12.5949 19.9156 13.721 19.9148 14.8469C19.9145 15.3013 19.7672 15.4464 19.3058 15.4467C18.2961 15.4472 16.1443 15.4469 16.0502 15.4469V24.5596C16.0502 25.0454 15.8974 25.2002 15.418 25.2002C14.2493 25.2002 13.0803 25.2005 11.9116 25.2002C11.4879 25.2002 11.3227 25.0356 11.3227 24.6119C11.3224 21.6442 11.3224 15.5511 11.3224 15.4469Z" fill="#AEB1BF"/>
</svg>
