<svg width="38" height="38" viewBox="0 0 38 38" fill="none" xmlns="http://www.w3.org/2000/svg">
<g clip-path="url(#clip0_3176_2491)">
<path d="M16.6679 21.9024H15.0588V20.2931C15.0588 19.6782 14.5603 19.1797 13.9454 19.1797C13.3305 19.1797 12.832 19.6782 12.832 20.2931V21.9024H11.2228C10.6079 21.9024 10.1094 22.4009 10.1094 23.0158V28.4607C10.1094 29.0756 10.6079 29.5741 11.2228 29.5741H12.832V31.2742C12.832 31.8891 13.3305 32.3876 13.9454 32.3876C14.5603 32.3876 15.0588 31.8891 15.0588 31.2742V29.5741H16.6679C17.2828 29.5741 17.7813 29.0756 17.7813 28.4607V23.0158C17.7813 22.4009 17.2828 21.9024 16.6679 21.9024Z" fill="#FFBE3D"/>
<path d="M26.7773 16.4571H25.1681V14.8478C25.1681 14.2329 24.6696 13.7344 24.0547 13.7344C23.4399 13.7344 22.9414 14.2329 22.9414 14.8478V16.4571H21.3321C20.7173 16.4571 20.2188 16.9556 20.2188 17.5704V23.0154C20.2188 23.6302 20.7173 24.1287 21.3321 24.1287H22.9414V31.2743C22.9414 31.8892 23.4399 32.3877 24.0547 32.3877C24.6696 32.3877 25.1681 31.8892 25.1681 31.2743V24.1287H26.7773C27.3922 24.1287 27.8907 23.6302 27.8907 23.0154V17.5704C27.8907 16.9556 27.3922 16.4571 26.7773 16.4571Z" fill="#FFBE3D"/>
<path d="M36.8867 8.33408H35.2774V6.72472C35.2774 6.10983 34.7789 5.61133 34.164 5.61133C33.5492 5.61133 33.0507 6.10983 33.0507 6.72472V8.33401H31.4415C30.8266 8.33401 30.3281 8.83251 30.3281 9.4474V17.5699C30.3281 18.1847 30.8266 18.6832 31.4415 18.6832H33.0507V23.1055C33.0507 23.7204 33.5492 24.2189 34.164 24.2189C34.7789 24.2189 35.2774 23.7204 35.2774 23.1055V18.6832H36.8867C37.5015 18.6832 38 18.1847 38 17.5699V9.44747C38 8.83258 37.5015 8.33408 36.8867 8.33408Z" fill="#FFBE3D"/>
<path d="M6.55845 13.6433H4.94938V6.72472C4.94938 6.10983 4.45088 5.61133 3.83599 5.61133C3.2211 5.61133 2.7226 6.10983 2.7226 6.72472V13.6433H1.11339C0.498501 13.6433 0 14.1418 0 14.7567V23.1055C0 23.7204 0.498501 24.2189 1.11339 24.2189H2.7226V25.8281C2.7226 26.443 3.2211 26.9415 3.83599 26.9415C4.45088 26.9415 4.94938 26.443 4.94938 25.8281V24.2189H6.55852C7.17341 24.2189 7.67191 23.7204 7.67191 23.1055V14.7567C7.67183 14.1418 7.17341 13.6433 6.55845 13.6433Z" fill="#FFBE3D"/>
</g>
<defs>
<clipPath id="clip0_3176_2491">
<rect width="38" height="38" fill="white"/>
</clipPath>
</defs>
</svg>
