<svg width="48" height="48" viewBox="0 0 48 48" fill="none" xmlns="http://www.w3.org/2000/svg">
<circle cx="24" cy="24" r="24" fill="white"/>
<path fill-rule="evenodd" clip-rule="evenodd" d="M6.73926 22.164L14.1169 4.6272L35.0737 7.0416L39.3649 19.9848L37.2193 37.8888C34.1353 41.1984 32.1673 42.852 31.3177 42.852C30.4681 42.852 24.0313 41.6784 12.0049 39.3312L6.74166 26.3208L6.73926 22.164Z" fill="#F9F9F9"/>
<path fill-rule="evenodd" clip-rule="evenodd" d="M34.056 37.9056H28.9464V29.1096C28.9464 27.7008 27.8064 26.556 26.3976 26.556H26.3952H19.0512C16.2312 26.556 13.944 24.2688 13.944 21.4488V10.0968H19.0512V18.8952C19.0512 20.304 20.1936 21.4488 21.6024 21.4488H28.9464C31.7664 21.4512 34.0512 23.736 34.0536 26.556L34.056 37.9056ZM19.2288 37.9056H14.1192V29.328C16.9392 29.328 19.2264 31.6128 19.2264 34.4352L19.2288 37.9056ZM28.7712 10.0944H33.8784V18.6768C31.056 18.6768 28.7712 16.3896 28.7712 13.5696V10.0944ZM24 0C10.7448 0 0 10.7472 0 24C0 37.2528 10.7448 48 24 48C37.2552 48 48 37.2552 48 24C48 10.7448 37.2552 0 24 0Z" fill="#005FFA"/>
</svg>
