<svg width="24" height="24" viewBox="0 0 24 24" fill="none" xmlns="http://www.w3.org/2000/svg">
<g clip-path="url(#clip0_3247_3597)">
<path d="M18.5504 12.7518C18.5191 9.71048 21.03 8.25504 21.1413 8.18201C19.7311 6.12143 17.5366 5.838 16.7524 5.8067C14.8866 5.61542 13.1077 6.90567 12.1583 6.90567C11.2123 6.90567 9.74819 5.83278 8.19885 5.8606C6.16088 5.8919 4.28463 7.04652 3.23435 8.86886C1.11813 12.5414 2.69182 17.9806 4.75413 20.9628C5.76268 22.4199 6.96598 24.0562 8.54314 23.9988C10.0629 23.938 10.6368 23.0146 12.4747 23.0146C14.3127 23.0146 14.8292 23.9988 16.4359 23.9693C18.0722 23.938 19.1068 22.4825 20.1067 21.0219C21.2648 19.33 21.7412 17.6902 21.7708 17.6085C21.7325 17.5876 18.5834 16.3826 18.5504 12.7518Z" fill="#CCCED9"/>
<path d="M15.528 3.83298C16.3644 2.81921 16.9313 1.40724 16.7765 0.000488281C15.568 0.0491769 14.1091 0.802111 13.2414 1.81762C12.4641 2.71662 11.7877 4.15119 11.9685 5.53012C13.3144 5.63619 14.6916 4.845 15.528 3.83298Z" fill="#CCCED9"/>
</g>
<defs>
<clipPath id="clip0_3247_3597">
<rect width="24" height="24" fill="white" transform="translate(0 0.000488281)"/>
</clipPath>
</defs>
</svg>
