<svg width="38" height="38" viewBox="0 0 38 38" fill="none" xmlns="http://www.w3.org/2000/svg">
<g clip-path="url(#clip0_3115_4692)">
<rect width="38" height="38" rx="4" transform="matrix(-1 0 0 1 38 0)" fill="#25A1FF"/>
<path d="M29.0833 11.8H8.91667C8.67355 11.8 8.44039 11.7052 8.26848 11.5364C8.09658 11.3676 8 11.1387 8 10.9C8 10.6613 8.09658 10.4324 8.26848 10.2636C8.44039 10.0948 8.67355 10 8.91667 10H29.0833C29.3264 10 29.5596 10.0948 29.7315 10.2636C29.9034 10.4324 30 10.6613 30 10.9C30 11.1387 29.9034 11.3676 29.7315 11.5364C29.5596 11.7052 29.3264 11.8 29.0833 11.8Z" fill="white"/>
<path d="M8.91667 15.3999H29.0833C29.3264 15.3999 29.5596 15.4947 29.7315 15.6635C29.9034 15.8323 30 16.0612 30 16.2999C30 16.5386 29.9034 16.7675 29.7315 16.9363C29.5596 17.1051 29.3264 17.1999 29.0833 17.1999H8.91667C8.67355 17.1999 8.44039 17.1051 8.26848 16.9363C8.09658 16.7675 8 16.5386 8 16.2999C8 16.0612 8.09658 15.8323 8.26848 15.6635C8.44039 15.4947 8.67355 15.3999 8.91667 15.3999Z" fill="white"/>
<path d="M8.91667 26.2H29.0833C29.3264 26.2 29.5596 26.2948 29.7315 26.4636C29.9034 26.6323 30 26.8613 30 27.1C30 27.3387 29.9034 27.5676 29.7315 27.7364C29.5596 27.9051 29.3264 28 29.0833 28H8.91667C8.67355 28 8.44039 27.9051 8.26848 27.7364C8.09658 27.5676 8 27.3387 8 27.1C8 26.8613 8.09658 26.6323 8.26848 26.4636C8.44039 26.2948 8.67355 26.2 8.91667 26.2Z" fill="white"/>
<path d="M8.91667 20.8H29.0833C29.3264 20.8 29.5596 20.8949 29.7315 21.0637C29.9034 21.2324 30 21.4614 30 21.7001C30 21.9387 29.9034 22.1677 29.7315 22.3365C29.5596 22.5052 29.3264 22.6001 29.0833 22.6001H8.91667C8.67355 22.6001 8.44039 22.5052 8.26848 22.3365C8.09658 22.1677 8 21.9387 8 21.7001C8 21.4614 8.09658 21.2324 8.26848 21.0637C8.44039 20.8949 8.67355 20.8 8.91667 20.8Z" fill="white"/>
</g>
<defs>
<clipPath id="clip0_3115_4692">
<rect width="38" height="38" fill="white" transform="matrix(-1 0 0 1 38 0)"/>
</clipPath>
</defs>
</svg>
