<svg width="38" height="38" viewBox="0 0 38 38" fill="none" xmlns="http://www.w3.org/2000/svg">
<path d="M10.2544 11.8704C10.7361 0.269223 27.2652 0.270303 27.7462 11.8704C27.7462 14.19 26.8248 16.4145 25.1846 18.0547C23.5444 19.6949 21.3199 20.6163 19.0003 20.6163C16.6807 20.6163 14.4562 19.6949 12.816 18.0547C11.1758 16.4145 10.2544 14.19 10.2544 11.8704ZM34.6931 25.7523C32.382 22.9567 29.2924 20.9108 25.8166 19.8741C23.9297 21.5051 21.5181 22.4011 19.0241 22.3976H18.9944C16.4944 22.4043 14.0761 21.5082 12.1841 19.8741C8.70817 20.9108 5.61862 22.9567 3.30749 25.7523C2.65103 26.5745 2.23994 27.5654 2.12148 28.6108C2.00303 29.6563 2.18201 30.714 2.63786 31.6623C3.09371 32.6106 3.80792 33.411 4.69838 33.9715C5.58883 34.532 6.61939 34.8298 7.67156 34.8307H30.3291C31.3812 34.8298 32.4118 34.532 33.3022 33.9715C34.1927 33.411 34.9069 32.6106 35.3627 31.6623C35.8186 30.714 35.9976 29.6563 35.8791 28.6108C35.7607 27.5654 35.3496 26.5745 34.6931 25.7523Z" fill="#25A1FF"/>
</svg>
