<svg width="24" height="20" viewBox="0 0 24 20" fill="none" xmlns="http://www.w3.org/2000/svg">
<path d="M23.1998 3.05499C22.3668 3.42039 21.4792 3.66259 20.5538 3.78019C21.5058 3.21179 22.2324 2.31859 22.574 1.24199C21.6864 1.77119 20.7064 2.14499 19.662 2.35359C18.8192 1.45619 17.618 0.900391 16.3076 0.900391C13.7652 0.900391 11.7184 2.96399 11.7184 5.49379C11.7184 5.85779 11.7492 6.20779 11.8248 6.54099C8.007 6.35479 4.6288 4.52499 2.3594 1.73759C0.736525 4.66163 2.5498 7.05899 3.7706 7.87519C3.0328 7.86119 2.309 7.64699 1.6958 7.30959C1.6958 9.58907 3.2876 11.4452 5.375 11.8722C4.9186 12.0237 3.92152 12.106 3.3016 11.945C3.8966 13.7636 5.585 15.1006 7.5926 15.144C6.0302 16.3662 3.72776 17.3624 0.799805 17.0396C2.834 18.3514 5.2448 19.1004 7.8446 19.1004C16.295 19.1004 20.915 12.1004 20.915 6.03279C20.915 5.82979 20.908 5.63379 20.8982 5.43919C21.8096 4.79239 22.5754 3.98459 23.1998 3.05499Z" fill="#AEB1BF"/>
</svg>
