<svg width="38" height="38" viewBox="0 0 38 38" fill="none" xmlns="http://www.w3.org/2000/svg">
<g clip-path="url(#clip0_3176_2508)">
<g clip-path="url(#clip1_3176_2508)">
<path d="M15.5129 5.77014C15.5129 3.72393 17.1776 2.0592 19.2238 2.0592H20.5081L20.1207 0.982285C19.9028 0.37666 19.3321 0 18.7238 0C18.5552 0 18.3838 0.0289453 18.2162 0.0899531L5.23883 4.81331C4.46733 5.09415 4.07026 5.94789 4.35274 6.7188L5.03844 8.59045H15.5129V5.77014Z" fill="#FF5668"/>
<path d="M19.2227 4.28516C18.4028 4.28516 17.7383 4.94971 17.7383 5.76953V8.58984H30.7266V5.76953C30.7266 4.94971 30.062 4.28516 29.2422 4.28516H19.2227Z" fill="#FF5668"/>
<path d="M34.6602 30.002H29.4648C26.3955 30.002 23.8984 27.5049 23.8984 24.4355C23.8984 21.3662 26.3955 18.8691 29.4648 18.8691H34.6602V13.7852C34.6602 12.1456 33.331 10.8164 31.6914 10.8164H2.96875C1.32918 10.8164 0 12.1456 0 13.7852V35.0306C0 36.6702 1.32918 37.9994 2.96875 37.9994H31.6914C33.331 37.9994 34.6602 36.6702 34.6602 35.0306V30.002Z" fill="#FF5668"/>
<path d="M36.8867 21.0957H29.4648C27.6233 21.0957 26.125 22.594 26.125 24.4355C26.125 26.2771 27.6233 27.7754 29.4648 27.7754H36.8867C37.5006 27.7754 38 27.276 38 26.6621V22.209C38 21.5951 37.5006 21.0957 36.8867 21.0957ZM29.4648 25.5488C28.85 25.5488 28.3516 25.0504 28.3516 24.4355C28.3516 23.8207 28.85 23.3223 29.4648 23.3223C30.0797 23.3223 30.5781 23.8207 30.5781 24.4355C30.5781 25.0504 30.0797 25.5488 29.4648 25.5488Z" fill="#FF5668"/>
</g>
</g>
<defs>
<clipPath id="clip0_3176_2508">
<rect width="38" height="38" fill="white"/>
</clipPath>
<clipPath id="clip1_3176_2508">
<rect width="38" height="38" fill="white"/>
</clipPath>
</defs>
</svg>
